<?xml version="1.0" standalone="no"?>
<!DOCTYPE svg PUBLIC "-//W3C//DTD SVG 20010904//EN"
 "http://www.w3.org/TR/2001/REC-SVG-20010904/DTD/svg10.dtd">
<svg version="1.0" xmlns="http://www.w3.org/2000/svg"
 width="512.000000pt" height="512.000000pt" viewBox="0 0 512.000000 512.000000"
 preserveAspectRatio="xMidYMid meet">

<g transform="translate(0.000000,512.000000) scale(0.100000,-0.100000)"
fill="#000000" stroke="none">
<path d="M1365 4858 c-257 -28 -528 -136 -741 -294 -598 -442 -793 -1254 -461
-1919 111 -222 85 -194 1201 -1312 767 -769 1042 -1039 1076 -1055 63 -30 177
-30 240 0 34 16 309 286 1076 1055 872 873 1040 1046 1091 1122 386 575 358
1307 -70 1840 -528 657 -1490 763 -2159 237 l-58 -45 -57 45 c-325 255 -733
372 -1138 326z m258 -194 l77 -7 0 -1691 0 -1691 -566 565 c-549 548 -647 653
-719 766 -188 294 -253 643 -184 986 51 257 164 470 348 661 254 262 555 395
942 416 14 0 60 -2 102 -5z m2207 -24 c262 -50 483 -165 676 -352 270 -263
407 -584 407 -958 1 -294 -86 -562 -256 -794 -38 -51 -269 -291 -636 -659
l-576 -577 -5 359 -5 360 -29 30 c-52 54 -142 37 -165 -31 -7 -20 -11 -186
-11 -482 l0 -451 -315 -315 c-309 -309 -315 -315 -355 -315 -40 0 -46 6 -350
310 l-310 310 2 1772 3 1772 80 -28 c163 -57 328 -156 463 -276 64 -57 78 -65
112 -65 34 0 48 8 96 51 158 143 385 273 546 313 l28 6 2 -886 3 -886 33 -29
c59 -53 140 -29 162 49 6 24 10 344 10 914 l0 877 53 4 c85 7 235 -4 337 -23z"/>
<path d="M3267 2504 c-53 -52 -40 -129 27 -161 98 -46 185 80 109 159 -37 38
-99 39 -136 2z"/>
</g>
</svg>
